<?xml version="1.0" encoding="utf-8"?>
<!-- Generator: Adobe Illustrator 16.0.0, SVG Export Plug-In . SVG Version: 6.00 Build 0)  -->
<!DOCTYPE svg PUBLIC "-//W3C//DTD SVG 1.1//EN" "http://www.w3.org/Graphics/SVG/1.1/DTD/svg11.dtd">
<svg version="1.1" id="katman_1" xmlns="http://www.w3.org/2000/svg" xmlns:xlink="http://www.w3.org/1999/xlink" x="0px" y="0px"
	 width="50px" height="50px" viewBox="0 0 50 50" enable-background="new 0 0 50 50" xml:space="preserve">
<g>
	<g>
		<path fill="#FCCD63" d="M7.77,27.094c-0.028,0.051-0.039,0.108-0.018,0.172l-0.002,0.01c0,0,0.01,0,0.008,0.013
			c-0.002,0.007,0.005,0.019,0.011,0.041c0.548,1.405,1.352,2.713,2.391,3.841c1.047,1.135,2.318,2.088,3.788,2.781
			c6.165,2.933,13.533,0.298,16.466-5.867c2.77-5.844,0.57-12.75-4.918-15.946c-0.009-0.011-0.02-0.013-0.02-0.013
			c-0.133-0.062-0.29-0.01-0.359,0.123c-0.019,0.055-0.029,0.122-0.019,0.171c0.009,0.002,0.007,0.012,0.007,0.012
			c0.772,2.754,0.586,5.802-0.739,8.588c-1.333,2.786-3.57,4.846-6.195,6c-1.139,0.492-2.347,0.821-3.591,0.959
			c-2.133,0.25-4.356-0.059-6.442-1.006c-0.019-0.002-0.036-0.015-0.045-0.017C7.966,26.914,7.83,26.967,7.77,27.094z"/>
		<path fill="#C8930D" d="M14.583,27.977l-0.009,0.047c-0.189,1.119,0.559,2.188,1.689,2.377c1.128,0.19,2.196-0.566,2.387-1.687
			c0.106-0.631-0.088-1.253-0.479-1.698C17.033,27.51,15.825,27.838,14.583,27.977z"/>
		<path fill="#C8930D" d="M29.477,22.467c0.562,0.095,0.939,0.627,0.844,1.189c-0.094,0.559-0.627,0.939-1.188,0.844
			c-0.563-0.095-0.939-0.627-0.844-1.188C28.383,22.75,28.914,22.372,29.477,22.467z"/>
	</g>
	<g>
		<path fill="#FFFFFF" d="M29.971,28.456l-2.018-0.341l-1.947,0.578l-0.805,0.996l-0.582,0.731l-1.01,0.397l-0.885,0.84l-0.557,1
			l-0.236,1.051l0.583,1.443l0.822,0.736l1.535,0.553h2.854h11.391l1.414-0.895l0.684-1.156v-1.287l-0.496-1.391l-0.842-0.947
			l-0.457-0.815l-0.48-1.312l-0.655-1.234l-0.859-0.959c0,0-1.815-0.729-1.894-0.635c-0.076,0.096-1.717,0.123-1.717,0.123
			l-1.617,0.394l-1.008,1.024L29.971,28.456z"/>
		<g>
			<g>
				<g>
					<path fill="#505B79" d="M40.951,30.582c-0.012-0.01-0.023-0.021-0.035-0.034c-0.16-0.149-0.375-0.34-0.406-0.368
						c-0.002,0-0.002-0.002-0.002-0.002c-0.582-2.93-3.193-5.092-6.234-5.092c-0.641,0-1.274,0.097-1.889,0.289
						c-1.131,0.354-2.098,0.984-2.887,1.88c-0.449-0.118-0.904-0.179-1.361-0.179c-1.811,0-3.451,0.949-4.451,2.555
						c-1.89,0.698-3.037,2.567-2.761,4.572c0.298,2.176,2.074,3.693,4.321,3.697h5.208h7.442c0.365,0,0.654-0.026,0.938-0.084
						c1.748-0.355,3.037-1.683,3.365-3.463C42.441,33.025,41.941,31.583,40.951,30.582z M40.518,34.049
						c-0.197,1.077-0.973,1.881-2.021,2.092c-0.168,0.036-0.354,0.051-0.601,0.051l-7.442,0.002l-5.207-0.002
						c-1.413,0-2.445-0.871-2.629-2.219c-0.174-1.271,0.613-2.453,1.875-2.81l0.079-0.022H24.57c0.215-0.062,0.33-0.205,0.355-0.238
						c0.003-0.006,0.006-0.008,0.006-0.008l0.077-0.143c0.682-1.251,1.824-1.965,3.129-1.965c0.452,0,0.905,0.085,1.348,0.259
						l0.283,0.108c0,0,0.006,0.003,0.014,0.006c0.063,0.021,0.326,0.088,0.494-0.121c0.006-0.006,0.012-0.012,0.016-0.02
						l0.193-0.265c0.629-0.856,1.438-1.444,2.412-1.75c0.446-0.14,0.91-0.213,1.377-0.213c2.102,0,3.926,1.412,4.477,3.374
						c0,0,0,0.007,0.004,0.021c0.002,0.01,0.008,0.021,0.01,0.035c0.004,0.021,0.012,0.051,0.021,0.084
						c0.004,0.01,0.006,0.021,0.01,0.033c0.009,0.036,0.019,0.077,0.026,0.12l0.011,0.047c0.032,0.146,0.067,0.322,0.099,0.503
						c0,0.006,0.002,0.01,0.002,0.014c0,0,0,0.004,0.002,0.011c0.008,0.042,0.059,0.219,0.301,0.354l-0.002,0.002
						c0.078,0.043,0.151,0.088,0.223,0.145h0.004c0.016,0.009,0.027,0.02,0.039,0.029c0.064,0.053,0.127,0.104,0.184,0.16
						c0.012,0.015,0.025,0.025,0.039,0.039c0.066,0.069,0.129,0.137,0.182,0.199c0.015,0.016,0.027,0.03,0.037,0.045
						c0.101,0.125,0.166,0.227,0.193,0.271c0.006,0.009,0.01,0.016,0.016,0.025v0.002c0.002,0,0.002,0,0.002,0
						C40.475,32.843,40.623,33.473,40.518,34.049z"/>
				</g>
			</g>
		</g>
		<path opacity="0.17" fill="#505B79" enable-background="new    " d="M34.092,35.777c-3.996-0.145-10.93-0.746-10.635-3.229
			c0,0-1.212,2.309,1.724,3.268h8.917C34.096,35.805,34.094,35.792,34.092,35.777z"/>
	</g>
</g>
</svg>
