<?xml version="1.0" encoding="utf-8"?>
<!-- Generator: Adobe Illustrator 16.0.0, SVG Export Plug-In . SVG Version: 6.00 Build 0)  -->
<!DOCTYPE svg PUBLIC "-//W3C//DTD SVG 1.1//EN" "http://www.w3.org/Graphics/SVG/1.1/DTD/svg11.dtd">
<svg version="1.1" id="katman_1" xmlns="http://www.w3.org/2000/svg" xmlns:xlink="http://www.w3.org/1999/xlink" x="0px" y="0px"
	 width="50px" height="50px" viewBox="0 0 50 50" enable-background="new 0 0 50 50" xml:space="preserve">
<path fill="#FFFFFF" d="M22.379,14.1l-3.309-0.557l-3.186,0.944l-1.323,1.632l-0.95,1.194l-1.654,0.652L10.51,19.34l-0.912,1.634
	l-0.389,1.718l0.957,2.362l1.348,1.202l2.512,0.901h4.673h18.659l2.314-1.459l1.119-1.891v-2.105l-0.813-2.274L38.6,17.877
	l-0.748-1.33l-0.789-2.147l-1.074-2.018l-1.406-1.563c0,0-2.975-1.198-3.102-1.043c-0.123,0.157-2.814,0.202-2.814,0.202
	l-2.646,0.642l-1.652,1.674L22.379,14.1z"/>
<g>
	<g>
		<path opacity="0.17" fill="#505B79" enable-background="new    " d="M16.003,24.095c-0.688-0.27-1.311-0.604-1.875-0.986
			c-1.76-0.707-2.827-1.629-2.664-2.83c0,0-2.205,3.654,3.135,5.174h6.29c-0.454-0.112-0.901-0.238-1.343-0.377
			C18.319,24.849,17.123,24.529,16.003,24.095z"/>
		<g>
			<path fill="#55BFD5" d="M25.271,22.398c-0.39,0.675-1.098,1.05-1.826,1.046c-0.729-0.002-1.436-0.384-1.819-1.062
				c-0.243-0.424-0.316-0.899-0.251-1.348v-0.002c0.079-0.858,0.893-2.166,1.459-2.987c0.418-0.633,0.561-0.751,0.574-0.766
				c0.001,0,0.001,0,0.001,0h0.001l-0.001,0.004c0.004-0.008,0.007-0.012,0.015-0.015l0,0c0.012-0.008,0.029-0.018,0.047-0.015
				c0.02,0.002,0.037,0.007,0.051,0.013l0,0c0.003,0.005,0.007,0.01,0.012,0.014l0,0c0,0,0,0,0.004-0.001
				c-0.004,0.003,0,0.003,0,0.003c0.016,0.009,0.152,0.128,0.567,0.767c0.561,0.825,1.362,2.144,1.435,3.002l-0.002-0.003
				C25.594,21.5,25.513,21.973,25.271,22.398z"/>
			<path fill="#55BFD5" d="M23.327,16.606c-0.006,0.001-0.009,0.005-0.011,0.011l-0.001-0.001
				C23.321,16.611,23.325,16.608,23.327,16.606z"/>
			<path fill="#55BFD5" d="M23.47,16.63L23.47,16.63L23.47,16.63z"/>
		</g>
		<g>
			<path fill="#55BFD5" d="M30.054,28.471c-0.391,0.676-1.101,1.049-1.826,1.045c-0.73-0.002-1.438-0.383-1.819-1.063
				c-0.243-0.424-0.319-0.895-0.251-1.344l-0.002-0.002c0.079-0.859,0.893-2.168,1.46-2.987c0.42-0.635,0.56-0.755,0.573-0.767
				c0.002-0.002,0.002-0.002,0.002-0.002l0,0v0.006c0.003-0.008,0.005-0.011,0.014-0.016l0,0c0.014-0.007,0.028-0.018,0.046-0.016
				c0.022,0.002,0.036,0.009,0.055,0.014l0,0c0.004,0.007,0.008,0.01,0.014,0.016l0,0c0,0,0,0,0.002-0.002
				c-0.002,0.004,0,0.002,0,0.002c0.016,0.013,0.153,0.13,0.566,0.769c0.56,0.826,1.36,2.142,1.434,3.001l-0.002-0.002
				C30.377,27.574,30.297,28.045,30.054,28.471z"/>
			<path fill="#55BFD5" d="M28.11,22.68c-0.008,0-0.009,0.006-0.011,0.01h-0.002C28.103,22.684,28.106,22.682,28.11,22.68z"/>
			<path fill="#55BFD5" d="M28.25,22.704L28.25,22.704L28.25,22.704z"/>
		</g>
		<g>
			<path fill="#55BFD5" d="M33.66,35.395c-0.393,0.678-1.099,1.049-1.826,1.047c-0.729-0.006-1.436-0.387-1.82-1.064
				c-0.241-0.422-0.316-0.896-0.249-1.346l-0.002-0.002c0.08-0.857,0.892-2.166,1.461-2.986c0.419-0.635,0.559-0.754,0.573-0.768
				c0.001-0.002,0.001-0.002,0.001-0.002l0,0v0.006c0.004-0.008,0.006-0.01,0.014-0.014l0,0c0.012-0.01,0.029-0.02,0.047-0.018
				c0.021,0.002,0.037,0.008,0.054,0.014l0,0c0.004,0.008,0.007,0.01,0.013,0.016l0,0c0,0,0,0,0.002-0.002
				c-0.002,0.004,0,0.002,0,0.002c0.016,0.016,0.153,0.131,0.569,0.77c0.559,0.826,1.36,2.141,1.43,3.002l-0.002-0.002
				C33.984,34.498,33.903,34.969,33.66,35.395z"/>
			<path fill="#55BFD5" d="M31.717,29.602c-0.006,0.002-0.009,0.01-0.01,0.014l-0.002-0.002
				C31.711,29.605,31.715,29.605,31.717,29.602z"/>
			<path fill="#55BFD5" d="M31.856,29.627L31.856,29.627L31.856,29.627z"/>
		</g>
		<g>
			<path fill="#55BFD5" d="M34.994,22.305c-0.392,0.676-1.101,1.048-1.827,1.046c-0.73-0.003-1.437-0.384-1.819-1.064
				c-0.242-0.42-0.318-0.897-0.251-1.346l-0.001-0.002c0.08-0.857,0.893-2.165,1.459-2.986c0.42-0.635,0.563-0.753,0.573-0.768
				c0.002-0.001,0.002-0.001,0.002-0.001l0,0v0.005c0.004-0.008,0.007-0.011,0.014-0.016l0,0c0.017-0.008,0.029-0.016,0.048-0.016
				c0.021,0.002,0.036,0.008,0.054,0.014l0,0c0.004,0.006,0.008,0.01,0.013,0.015l0,0c0,0,0,0,0.002-0.001
				c-0.002,0.003,0,0.002,0,0.002c0.017,0.013,0.153,0.13,0.568,0.768c0.56,0.825,1.362,2.144,1.433,3.002l-0.001-0.002
				C35.316,21.408,35.236,21.88,34.994,22.305z"/>
			<path fill="#55BFD5" d="M33.051,16.512c-0.008,0.002-0.01,0.006-0.012,0.011l-0.002-0.001
				C33.043,16.516,33.046,16.515,33.051,16.512z"/>
			<path fill="#55BFD5" d="M33.191,16.538L33.191,16.538L33.191,16.538z"/>
		</g>
		<polygon fill="#505B79" points="17.524,26.098 19.224,26.098 19.175,26.199 18.815,27.004 18.509,27.699 17.524,27.699 		"/>
		<path fill="#505B79" d="M41.276,22.967c-0.438,2.377-2.147,4.146-4.474,4.613c-0.38,0.078-0.767,0.107-1.283,0.107h-3.809
			l0.398-1.598h3.41c0.397,0,0.694-0.021,0.954-0.08c1.7-0.338,2.904-1.591,3.221-3.333c0.289-1.56-0.485-3.231-1.919-4.145
			c-0.35-0.229-0.735-0.686-0.807-1.214c-0.496-3.698-3.709-6.492-7.477-6.492c-0.757,0-1.511,0.12-2.248,0.338
			c-1.771,0.557-3.151,1.641-4.235,3.311l-0.131,0.21c-0.019,0.019-0.019,0.039-0.039,0.058c-0.078,0.11-0.219,0.181-0.368,0.181
			c-0.048,0-0.088,0-0.128-0.021c-0.02,0-0.041-0.011-0.051-0.021l-0.656-0.257c-0.775-0.32-1.572-0.488-2.354-0.488
			c-2.089,0-3.948,1.173-4.993,3.132c-0.188,0.377-0.596,0.707-1.033,0.816c-1.997,0.567-3.251,2.444-2.982,4.473
			c0.298,2.148,1.949,3.531,4.195,3.531l3.053,0.01h3.578l-0.721,1.602h-5.906c-3.053-0.014-5.379-1.98-5.777-4.923
			c-0.387-2.826,1.353-5.449,4.137-6.236c1.371-2.524,3.769-4.006,6.451-4.006c0.926,0,1.852,0.17,2.756,0.527
			c1.231-1.68,2.822-2.824,4.732-3.429c0.884-0.28,1.799-0.417,2.723-0.417c2.286,0,4.395,0.844,6.026,2.256
			c1.62,1.411,2.744,3.381,3.042,5.628c0.01,0,0.051,0.059,0.08,0.079C40.621,18.442,41.674,20.769,41.276,22.967z"/>
	</g>
	<path fill="#EA5A71" d="M26.056,30.244l-6.334,10.479c0,0,0,0,0,0.01h-0.01c-0.029,0.043-0.059,0.063-0.1,0.043
		c-0.05,0-0.08-0.053-0.07-0.102l2.297-8.145l-2.654-0.496l1.51-3.373l0.051-0.111l1.101-2.449h1.145v0.01h1.958L24.78,26.5
		l-0.127,0.303v0.012l-0.389,0.887l-0.953,2.184L26.056,30.244z"/>
</g>
</svg>
