<?xml version="1.0" encoding="utf-8"?>
<!-- Generator: Adobe Illustrator 16.0.0, SVG Export Plug-In . SVG Version: 6.00 Build 0)  -->
<!DOCTYPE svg PUBLIC "-//W3C//DTD SVG 1.1//EN" "http://www.w3.org/Graphics/SVG/1.1/DTD/svg11.dtd">
<svg version="1.1" id="katman_1" xmlns="http://www.w3.org/2000/svg" xmlns:xlink="http://www.w3.org/1999/xlink" x="0px" y="0px"
	 width="42.1px" height="26.25px" viewBox="0 0 42.1 26.25" enable-background="new 0 0 42.1 26.25" xml:space="preserve">
<g>
	<g>
		<g>
			<g>
				<path fill="#1A1A26" d="M39.251,13.655c-0.2-0.127-0.403-0.396-0.431-0.621c-0.665-4.939-5.688-8.131-10.482-6.632
					c-1.342,0.42-2.472,1.124-3.41,2.093c0.444-0.011,0.882,0.014,1.309,0.075c1.797-1.516,3.953-2.018,6.389-1.352
					c2.913,0.792,4.684,2.782,5.225,5.769c0.131,0.714,0.301,1.184,1.012,1.583c1.49,0.836,2.08,2.651,1.592,4.27
					c-0.502,1.663-2.01,2.729-3.906,2.729h-0.871c-0.093,0.318-0.215,0.613-0.367,0.895h1.318c0.361,0,0.733-0.022,1.092-0.09
					c1.974-0.408,3.384-1.87,3.748-3.873C41.808,16.639,40.913,14.721,39.251,13.655z"/>
			</g>
		</g>
	</g>
	<g>
		<g>
			<g>
				<path fill="#1A1A26" d="M32.414,16.901c-0.202-0.127-0.403-0.399-0.434-0.627c-0.663-4.947-5.701-8.142-10.499-6.642
					c-1.946,0.607-3.438,1.81-4.561,3.554c-0.152-0.063-0.267-0.103-0.379-0.15c-3.187-1.341-6.538-0.13-8.161,2.933
					c-0.096,0.186-0.325,0.351-0.525,0.41c-2.332,0.655-3.806,2.856-3.479,5.227c0.338,2.46,2.28,4.12,4.868,4.12
					c6.85,0.007,13.694,0.002,20.541,0c0.367,0,0.738-0.021,1.094-0.094c1.979-0.402,3.392-1.867,3.758-3.88
					C34.978,19.891,34.08,17.967,32.414,16.901z M33.618,22.096c-0.504,1.667-2.01,2.73-3.912,2.736
					c-5.451,0.002-10.902,0.007-16.349,0c-1.586-0.006-3.181,0.033-4.762-0.075c-1.846-0.122-3.314-1.805-3.362-3.684
					c-0.048-1.881,1.377-3.599,3.232-3.864c0.287-0.041,0.457-0.117,0.582-0.413c1.363-3.213,4.833-4.314,7.828-2.521
					c0,0,0.003,0.002,0.006,0.002c0.015,0.011,0.023,0.02,0.039,0.024c0.003,0.003,0.003,0.003,0.006,0.003
					c0.097,0.052,0.322,0.133,0.476-0.108c0.303-0.479,0.583-0.958,0.944-1.371c1.987-2.291,4.505-3.172,7.434-2.373
					c2.917,0.791,4.693,2.786,5.237,5.781c0.125,0.714,0.3,1.187,1.01,1.582C33.517,18.651,34.111,20.475,33.618,22.096z"/>
			</g>
			<g>
				<path fill="#F4982B" d="M13.177,5.617c-3.918-0.25-7.369,2.721-7.611,6.724c-0.082,1.353,0.211,2.621,0.774,3.717
					c0.271-0.14,0.557-0.259,0.857-0.349c-0.466-0.88-0.73-1.887-0.726-2.959C6.474,9.298,9.29,6.51,12.764,6.514
					c2.512,0.003,4.691,1.522,5.679,3.689c0.242-0.183,0.492-0.354,0.758-0.508C18.13,7.46,15.925,5.791,13.177,5.617z"/>
			</g>
			<path fill="#F4982B" d="M19.959,7.453c-0.211,0.156-0.508,0.113-0.667-0.103l0,0c-0.157-0.208-0.111-0.508,0.099-0.666
				l2.998-2.211c0.211-0.154,0.507-0.109,0.666,0.102l0,0c0.156,0.209,0.112,0.509-0.103,0.667L19.959,7.453z"/>
			<path fill="#F4982B" d="M1.138,17.804c-0.237,0.123-0.522,0.038-0.648-0.193l0,0c-0.123-0.237-0.038-0.521,0.196-0.648
				l3.277-1.768c0.229-0.121,0.519-0.036,0.645,0.194l0,0c0.123,0.231,0.038,0.521-0.194,0.646L1.138,17.804z"/>
			<path fill="#F4982B" d="M5.436,2.538C5.302,2.31,5.377,2.016,5.602,1.883l0,0c0.227-0.137,0.516-0.063,0.653,0.164l1.911,3.195
				c0.133,0.225,0.063,0.519-0.164,0.655l0,0C7.773,6.03,7.483,5.959,7.346,5.734L5.436,2.538z"/>
			<path fill="#F4982B" d="M14.413,4.364c-0.063,0.256-0.324,0.41-0.578,0.345l0,0c-0.256-0.065-0.411-0.325-0.349-0.577
				l0.908-3.611c0.065-0.256,0.324-0.41,0.582-0.346l0,0c0.255,0.062,0.41,0.322,0.344,0.577L14.413,4.364z"/>
			<path fill="#F4982B" d="M0.459,9.768c-0.255-0.065-0.41-0.325-0.345-0.58l0,0c0.066-0.256,0.321-0.41,0.578-0.346l3.61,0.908
				c0.252,0.062,0.409,0.322,0.345,0.577l0,0c-0.065,0.256-0.322,0.41-0.577,0.347L0.459,9.768z"/>
		</g>
	</g>
</g>
</svg>
