<?xml version="1.0" encoding="utf-8"?>
<!-- Generator: Adobe Illustrator 16.0.0, SVG Export Plug-In . SVG Version: 6.00 Build 0)  -->
<!DOCTYPE svg PUBLIC "-//W3C//DTD SVG 1.1//EN" "http://www.w3.org/Graphics/SVG/1.1/DTD/svg11.dtd">
<svg version="1.1" id="katman_1" xmlns="http://www.w3.org/2000/svg" xmlns:xlink="http://www.w3.org/1999/xlink" x="0px" y="0px"
	 width="50px" height="50px" viewBox="0 0 50 50" enable-background="new 0 0 50 50" xml:space="preserve">
<g>
	<g>
		<g>
			<path fill="#FCCD63" d="M29.73,24.2c-0.08,0.01-0.16,0.04-0.24,0.06c-1.24,0.37-2.32,1.21-3.061,2.4
				c-1.661,0.619-2.761,2.1-2.871,3.811c-0.14,0.061-0.28,0.119-0.42,0.18c-1.26-1.979-3.49-3.279-5.97-3.279
				c-0.71,0-1.41,0.109-2.09,0.32c-1.24,0.379-2.3,1.068-3.16,2.039c-0.97-0.59-1.83-1.311-2.58-2.119
				c-1.04-1.131-1.84-2.44-2.39-3.84c-0.01-0.02-0.01-0.03-0.01-0.04c0-0.02-0.01-0.02-0.01-0.02V23.7
				c-0.02-0.06-0.01-0.12,0.02-0.17c0.06-0.12,0.19-0.18,0.32-0.14c0.01,0.01,0.03,0.02,0.05,0.02c2.08,0.95,4.31,1.26,6.44,1.01
				c0.31-0.04,0.62-0.08,0.92-0.14c0.31-0.06,0.61-0.13,0.91-0.21c0.6-0.16,1.19-0.37,1.76-0.61h0.01c2.62-1.17,4.85-3.22,6.18-6
				c1.33-2.79,1.52-5.84,0.74-8.59c0,0,0,0,0-0.01c-0.01-0.05,0-0.12,0.01-0.17c0.07-0.14,0.23-0.19,0.36-0.13c0,0,0.02,0,0.02,0.02
				C30.061,11.71,32.279,18.43,29.73,24.2z"/>
			<path fill="#C8930D" d="M13.762,24.414l-0.009,0.048c-0.189,1.119,0.559,2.187,1.688,2.377s2.196-0.567,2.387-1.687
				c0.106-0.631-0.088-1.253-0.479-1.698C16.211,23.948,15.004,24.276,13.762,24.414z"/>
			<path fill="#C8930D" d="M28.654,18.905c0.562,0.095,0.939,0.627,0.845,1.189c-0.095,0.559-0.627,0.939-1.188,0.844
				c-0.563-0.095-0.938-0.627-0.844-1.188C27.563,19.188,28.093,18.811,28.654,18.905z"/>
		</g>
	</g>
	<g>
		<path fill="#FBBE1B" d="M9.831,37.943c-0.505,0.508-1.32,0.508-1.821,0l0,0c-0.505-0.502-0.505-1.314,0-1.82l2.4-2.398
			c0.503-0.508,1.315-0.508,1.821,0l0,0c0.504,0.502,0.504,1.314,0,1.822L9.831,37.943z"/>
		<g>
			<path fill="#FFFFFF" d="M12.61,31.754l-2.077-0.352l-1.999,0.594l-0.831,1.025l-0.597,0.752l-1.037,0.41l-0.908,0.861
				l-0.573,1.029L4.344,37.15l0.601,1.484l0.846,0.756l1.577,0.568H10.3h11.709l1.455-0.92l0.701-1.188v-1.322l-0.51-1.43
				l-0.866-0.977l-0.468-0.838l-0.495-1.352l-0.674-1.268l-0.884-0.984c0,0-1.867-0.752-1.946-0.652
				c-0.078,0.1-1.765,0.127-1.765,0.127l-1.661,0.402l-1.037,1.055L12.61,31.754z"/>
			<g>
				<g>
					<g>
						<path fill="#505B79" d="M23.9,33.939c-0.02-0.01-0.03-0.021-0.04-0.039c-0.17-0.15-0.38-0.352-0.42-0.371v-0.01
							c-0.19-0.949-0.59-1.818-1.14-2.56c-1.2-1.63-3.13-2.67-5.27-2.67c-0.66,0-1.31,0.101-1.94,0.3
							c-0.97,0.301-1.82,0.801-2.55,1.5c-0.14,0.131-0.28,0.28-0.42,0.43c-0.46-0.119-0.93-0.18-1.4-0.18
							c-1.86,0-3.55,0.971-4.57,2.62c-1.94,0.72-3.12,2.64-2.84,4.7c0.31,2.24,2.13,3.8,4.44,3.8h13.01c0.37,0,0.67-0.021,0.96-0.08
							c1.8-0.37,3.12-1.729,3.46-3.56C25.43,36.45,24.91,34.971,23.9,33.939z M5.05,37.42c-0.18-1.3,0.63-2.52,1.93-2.88l0.08-0.03
							c0.22-0.06,0.34-0.21,0.36-0.24c0.01-0.01,0.01-0.01,0.01-0.01l0.08-0.148c0.7-1.28,1.87-2.021,3.21-2.021
							c0.47,0,0.94,0.09,1.39,0.271l0.29,0.109c0,0,0.01,0,0.02,0.01c0.06,0.021,0.33,0.09,0.5-0.131c0.01,0,0.01-0.01,0.02-0.02
							l0.2-0.271c0.06-0.078,0.12-0.158,0.19-0.238c0.3-0.37,0.64-0.682,1.01-0.932c0.39-0.279,0.82-0.479,1.28-0.63
							c0.46-0.14,0.93-0.21,1.41-0.21c1.3,0,2.49,0.521,3.36,1.381c0.58,0.561,1.01,1.271,1.24,2.079c0,0,0,0.011,0.01,0.021
							c0,0.011,0.01,0.029,0.01,0.041c0,0.02,0.01,0.05,0.02,0.09c0,0.01,0,0.02,0.01,0.029c0.01,0.041,0.02,0.08,0.03,0.119
							l0.01,0.051c0.03,0.149,0.07,0.33,0.1,0.521V34.4c0.01,0.05,0.06,0.229,0.31,0.369c0.08,0.039,0.16,0.09,0.23,0.149
							c0.02,0.011,0.03,0.021,0.04,0.03c0.07,0.05,0.13,0.109,0.19,0.17c0.01,0.01,0.03,0.02,0.04,0.029
							c0.07,0.069,0.13,0.141,0.19,0.211c0.01,0.02,0.03,0.029,0.04,0.05c0.02,0.03,0.05,0.06,0.07,0.09
							c0.06,0.08,0.11,0.149,0.13,0.19c0,0,0,0.01,0.01,0.02c0.27,0.43,0.42,0.92,0.42,1.4c0,0.13-0.02,0.26-0.04,0.39
							c-0.2,1.11-1,1.931-2.08,2.149c-0.17,0.041-0.36,0.061-0.62,0.061h-13C6.3,39.71,5.24,38.811,5.05,37.42z"/>
					</g>
				</g>
			</g>
			<path opacity="0.17" fill="#505B79" enable-background="new    " d="M16.844,39.279c-4.107-0.146-11.234-0.77-10.932-3.318
				c0,0-1.246,2.375,1.771,3.359h9.168C16.85,39.307,16.848,39.295,16.844,39.279z"/>
		</g>
		<g>
			<path fill="#FFFFFF" d="M34.102,25.83l-2.076-0.351l-1.998,0.595l-0.83,1.023L28.6,27.85l-1.039,0.409l-0.908,0.863L26.08,30.15
				l-0.243,1.078l0.601,1.483l0.847,0.759l1.577,0.565h2.933H43.5l1.453-0.92l0.701-1.188v-1.322l-0.51-1.431L44.279,28.2
				l-0.467-0.839l-0.496-1.348l-0.674-1.27l-0.884-0.983c0,0-1.866-0.753-1.946-0.655c-0.078,0.099-1.767,0.126-1.767,0.126
				l-1.659,0.405l-1.037,1.052L34.102,25.83z"/>
			<g>
				<g>
					<g>
						<path fill="#505B79" d="M45.391,28.02C45.38,28,45.359,27.99,45.35,27.98c-0.158-0.15-0.379-0.352-0.42-0.381
							c-0.3-1.5-1.119-2.821-2.26-3.75c-0.8-0.66-1.77-1.14-2.83-1.35c-0.43-0.09-0.869-0.14-1.32-0.14
							c-0.658,0-1.31,0.11-1.938,0.3c-0.47,0.15-0.91,0.35-1.33,0.58c-0.04,0.03-0.09,0.06-0.14,0.09
							c-0.551,0.34-1.062,0.76-1.5,1.27c-0.461-0.13-0.932-0.19-1.4-0.19c-0.52,0-1.029,0.08-1.51,0.23
							c-0.57,0.17-1.11,0.44-1.602,0.8v0.01c-0.095,0.068-0.172,0.16-0.263,0.234l-0.017,0.006l-0.027,0.033
							c-0.434,0.371-0.83,0.801-1.152,1.316c-0.871,0.32-1.58,0.88-2.091,1.59l-0.01,0.021c-0.22,0.31-0.4,0.658-0.52,1.029h-0.01
							c-0.17,0.471-0.25,0.971-0.25,1.489c0,0.19,0.01,0.38,0.04,0.57c0.15,1.02,0.6,1.899,1.28,2.56
							c0.33,0.32,0.71,0.59,1.141,0.79c0.6,0.29,1.289,0.45,2.021,0.45h13.01c0.37,0,0.67-0.03,0.96-0.09
							c1.801-0.36,3.12-1.73,3.46-3.561C46.92,30.529,46.41,29.04,45.391,28.02z M42.859,33.73c-0.17,0.039-0.359,0.049-0.609,0.049
							h-13c-0.311,0-0.6-0.039-0.859-0.119c-0.24-0.061-0.451-0.16-0.65-0.28c-0.08-0.04-0.15-0.09-0.221-0.149
							c-0.271-0.199-0.49-0.449-0.66-0.739c-0.159-0.29-0.271-0.62-0.319-0.99c-0.04-0.271-0.03-0.54,0.021-0.79
							c0.16-0.979,0.881-1.8,1.91-2.1l0.079-0.021c0.22-0.061,0.341-0.21,0.36-0.25c0.01,0,0.01-0.01,0.01-0.01L29,28.189
							c0.439-0.801,1.05-1.381,1.779-1.709v-0.01c0.439-0.189,0.921-0.301,1.431-0.301c0.47,0,0.94,0.09,1.39,0.271l0.291,0.108
							c0,0,0.01,0,0.021,0c0.06,0.03,0.33,0.091,0.5-0.12c0.01-0.01,0.01-0.01,0.021-0.02l0.199-0.271
							c0.641-0.88,1.48-1.49,2.48-1.8c0.459-0.14,0.93-0.22,1.408-0.22c0.271,0,0.541,0.02,0.791,0.07c0.01-0.01,0.01-0.01,0.021,0
							c1.13,0.19,2.14,0.78,2.851,1.629c0.43,0.511,0.76,1.109,0.939,1.771c0,0,0,0.011,0.01,0.021c0,0.011,0,0.021,0.01,0.041
							c0,0.02,0.012,0.05,0.021,0.08c0,0.01,0.01,0.028,0.01,0.039c0.01,0.029,0.021,0.08,0.03,0.119l0.01,0.051
							c0,0.021,0.011,0.029,0.011,0.051c0.029,0.14,0.061,0.3,0.09,0.47c0,0,0,0,0,0.011c0,0,0,0,0,0.01
							c0.01,0.039,0.061,0.229,0.311,0.369c0.08,0.041,0.16,0.092,0.229,0.142c0.021,0.01,0.03,0.02,0.041,0.04
							c0.069,0.05,0.129,0.1,0.189,0.16c0.01,0.02,0.029,0.029,0.04,0.039c0.069,0.069,0.13,0.141,0.188,0.211
							c0.012,0.01,0.021,0.029,0.041,0.039c0.101,0.131,0.17,0.229,0.189,0.279c0.01,0.01,0.01,0.021,0.02,0.03
							c0.271,0.431,0.422,0.92,0.422,1.399c0,0.131-0.021,0.261-0.041,0.391C44.74,32.689,43.939,33.51,42.859,33.73z"/>
					</g>
				</g>
			</g>
			<path opacity="0.17" fill="#505B79" enable-background="new    " d="M38.336,33.355c-4.107-0.146-11.234-0.77-10.932-3.318
				c0,0-1.247,2.375,1.77,3.361h9.169C38.341,33.385,38.339,33.371,38.336,33.355z"/>
		</g>
	</g>
</g>
</svg>
